<?xml version="1.0" standalone="no"?><!DOCTYPE svg PUBLIC "-//W3C//DTD SVG 1.1//EN" "http://www.w3.org/Graphics/SVG/1.1/DTD/svg11.dtd"><svg t="1700644902525" class="icon" fill="#000000" viewBox="0 0 1024 1024" version="1.1" xmlns="http://www.w3.org/2000/svg" p-id="2509" xmlns:xlink="http://www.w3.org/1999/xlink" width="200" height="200"><path d="M512 32C247.04 32 32 247.04 32 512s215.04 480 480 480 480-215.04 480-480S776.96 32 512 32z m0 832c-193.92 0-352-158.08-352-352S318.08 160 512 160s352 158.08 352 352-158.08 352-352 352z" fill="" p-id="2510"></path><path d="M518.4 262.4c-49.28 0-88.96 14.72-118.4 43.52-30.08 28.8-45.44 68.48-45.44 118.4 0 3.84 0 23.68 15.36 39.04 7.04 7.04 19.84 16 40.96 16 40.96 0 57.6-32 58.24-54.4 0-19.2 3.2-33.92 10.24-43.52 4.48-6.4 12.16-13.44 35.2-13.44 13.44 0 23.68 3.2 29.44 8.96 6.4 7.04 9.6 16.64 9.6 28.8 0 8.96-3.2 17.92-10.24 25.6l-4.48 5.76c-42.24 37.76-65.28 62.72-73.6 80.64-9.6 19.2-14.72 40.96-14.72 68.48v8.32c0 18.56 15.36 46.08 56.32 46.08 42.88 0 56.96-28.8 58.88-46.08v-8.32c0-10.24 1.92-18.56 6.4-26.88 3.84-8.32 9.6-15.36 17.28-22.4 26.24-23.04 45.44-40.32 53.76-49.92 17.28-23.68 26.24-52.48 26.24-85.76 0-42.88-14.72-76.8-42.88-101.76-27.52-24.32-64-37.12-108.16-37.12z" fill="" p-id="2511"></path><path d="M508.8 707.2m-54.4 0a54.4 54.4 0 1 0 108.8 0 54.4 54.4 0 1 0-108.8 0Z" fill="" p-id="2512"></path></svg>